<svg width="264" height="185" viewBox="0 0 264 185" fill="none" xmlns="http://www.w3.org/2000/svg">
<g clip-path="url(#clip0_3_224)">
<path d="M174.136 49.0134H130.805C129.856 49.0154 128.919 48.865 128.066 48.5737C127.212 48.2824 126.464 47.8578 125.879 47.3323C125.282 46.8018 124.866 46.1825 124.661 45.5216C124.456 44.8607 124.468 44.1756 124.696 43.5184C128.689 31.7399 128.689 19.4649 124.696 7.68652C124.468 7.02935 124.456 6.34426 124.661 5.68339C124.866 5.02252 125.282 4.40328 125.878 3.87277C126.464 3.3472 127.212 2.9226 128.066 2.63129C128.919 2.33998 129.856 2.18963 130.805 2.19168H174.136C175.632 2.19471 177.078 2.57157 178.216 3.25514C179.355 3.93871 180.111 4.8846 180.352 5.92435C183.204 18.9663 183.204 32.2388 180.352 45.2807C180.111 46.3205 179.355 47.2664 178.216 47.9499C177.078 48.6335 175.632 49.0104 174.136 49.0134Z" fill="#E6E6E6"/>
<path d="M130.805 4.48744C130.349 4.48637 129.899 4.55847 129.489 4.69826C129.079 4.83806 128.72 5.04186 128.439 5.29417C128.149 5.55269 127.947 5.85432 127.847 6.17613C127.748 6.49793 127.755 6.83143 127.866 7.15126C131.979 19.2816 131.979 31.9234 127.866 44.0538C127.755 44.3736 127.748 44.707 127.848 45.0287C127.947 45.3505 128.149 45.6521 128.438 45.9105L128.439 45.9107C128.72 46.1631 129.079 46.3669 129.489 46.5068C129.899 46.6466 130.349 46.7187 130.805 46.7176H174.136C174.854 46.7178 175.55 46.5384 176.098 46.2114C176.646 45.8844 177.012 45.431 177.129 44.9319C179.93 32.1211 179.93 19.0839 177.129 6.27315C177.012 5.7741 176.646 5.3207 176.098 4.99368C175.55 4.66667 174.854 4.48727 174.136 4.48744L130.805 4.48744Z" fill="white"/>
<path d="M164.68 15.5265H141.942C141.077 15.5258 140.249 15.2838 139.637 14.8534C139.026 14.423 138.682 13.8395 138.682 13.2308V12.3337C138.682 11.7251 139.026 11.1415 139.637 10.7112C140.249 10.2808 141.077 10.0387 141.942 10.038H164.68C165.545 10.0387 166.373 10.2808 166.984 10.7112C167.596 11.1415 167.939 11.7251 167.94 12.3337V13.2308C167.939 13.8395 167.596 14.423 166.984 14.8534C166.373 15.2838 165.545 15.5258 164.68 15.5265Z" fill="#E6E6E6"/>
<path d="M164.68 26.8621H141.942C141.077 26.8614 140.249 26.6194 139.637 26.189C139.026 25.7586 138.682 25.1751 138.682 24.5664V23.6693C138.682 23.0607 139.026 22.4771 139.637 22.0468C140.249 21.6164 141.077 21.3743 141.942 21.3737H164.68C165.545 21.3743 166.373 21.6164 166.984 22.0468C167.596 22.4771 167.939 23.0607 167.94 23.6693V24.5664C167.939 25.1751 167.596 25.7586 166.984 26.189C166.373 26.6194 165.545 26.8614 164.68 26.8621Z" fill="#E6E6E6"/>
<path d="M164.68 38.1977H141.942C141.077 38.1971 140.249 37.955 139.637 37.5246C139.026 37.0942 138.682 36.5107 138.682 35.9021V35.0049C138.682 34.3963 139.026 33.8128 139.637 33.3824C140.249 32.952 141.077 32.7099 141.942 32.7093H164.68C165.545 32.7099 166.373 32.952 166.984 33.3824C167.596 33.8128 167.939 34.3963 167.94 35.0049V35.9021C167.939 36.5107 167.596 37.0942 166.984 37.5246C166.373 37.955 165.545 38.1971 164.68 38.1977Z" fill="#E6E6E6"/>
<path d="M255.645 78.093H212.314C211.365 78.095 210.429 77.9447 209.575 77.6534C208.721 77.362 207.973 76.9375 207.388 76.4119C206.792 75.8814 206.375 75.2621 206.17 74.6012C205.965 73.9403 205.977 73.2552 206.205 72.598C210.199 60.8195 210.199 48.5446 206.205 36.7661C205.977 36.109 205.965 35.4239 206.17 34.763C206.375 34.1021 206.792 33.4829 207.388 32.9524C207.973 32.4268 208.721 32.0022 209.575 31.7109C210.429 31.4196 211.365 31.2693 212.314 31.2713H255.645C257.141 31.2743 258.587 31.6512 259.726 32.3348C260.864 33.0183 261.621 33.9642 261.861 35.004C264.713 48.0459 264.713 61.3184 261.861 74.3603C261.621 75.4001 260.864 76.346 259.726 77.0296C258.587 77.7131 257.141 78.09 255.645 78.093Z" fill="#E6E6E6"/>
<path d="M212.314 33.5671C211.859 33.566 211.409 33.6381 210.999 33.7779C210.589 33.9177 210.229 34.1215 209.948 34.3738C209.658 34.6323 209.456 34.934 209.357 35.2558C209.258 35.5776 209.264 35.9111 209.375 36.2309C213.488 48.3613 213.489 61.003 209.376 73.1334C209.264 73.4532 209.258 73.7866 209.357 74.1084C209.456 74.4301 209.658 74.7317 209.948 74.9902L209.948 74.9903C210.229 75.2427 210.589 75.4466 210.999 75.5864C211.409 75.7262 211.859 75.7983 212.314 75.7973H255.645C256.364 75.7974 257.059 75.618 257.607 75.291C258.155 74.964 258.521 74.5106 258.639 74.0115C261.44 61.2008 261.44 48.1636 258.639 35.3528C258.521 34.8537 258.155 34.4003 257.607 34.0733C257.059 33.7463 256.364 33.5669 255.645 33.5671L212.314 33.5671Z" fill="white"/>
<path d="M169.245 111.19H125.914C124.924 111.192 123.947 111.035 123.056 110.731C122.166 110.428 121.385 109.985 120.775 109.436C120.153 108.883 119.719 108.237 119.505 107.548C119.291 106.859 119.304 106.145 119.541 105.459C123.525 93.7102 123.525 81.4658 119.541 69.7167C119.303 69.0314 119.291 68.317 119.505 67.6279C119.719 66.9388 120.153 66.293 120.774 65.7399C121.385 65.1915 122.166 64.7486 123.056 64.4446C123.947 64.1407 124.924 63.9838 125.914 63.9859H169.245C170.806 63.9892 172.315 64.3825 173.502 65.0957C174.69 65.809 175.479 66.7959 175.73 67.8807C178.586 80.942 178.586 94.2341 175.73 107.295C175.479 108.38 174.69 109.367 173.502 110.08C172.315 110.794 170.806 111.187 169.245 111.19Z" fill="#F2F2F2"/>
<path d="M246.189 50.3455H223.451C222.587 50.3449 221.758 50.1028 221.147 49.6724C220.536 49.242 220.192 48.6585 220.191 48.0499V47.1527C220.192 46.5441 220.536 45.9606 221.147 45.5302C221.758 45.0998 222.587 44.8577 223.451 44.8571H246.189C247.054 44.8577 247.883 45.0998 248.494 45.5302C249.105 45.9606 249.449 46.5441 249.45 47.1527V48.0499C249.449 48.6585 249.105 49.242 248.494 49.6724C247.883 50.1028 247.054 50.3449 246.189 50.3455Z" fill="#E6E6E6"/>
<path d="M246.189 61.6811H223.451C222.587 61.6805 221.758 61.4384 221.147 61.008C220.536 60.5776 220.192 59.9941 220.191 59.3855V58.4884C220.192 57.8797 220.536 57.2962 221.147 56.8658C221.758 56.4354 222.587 56.1933 223.451 56.1927H246.189C247.054 56.1933 247.883 56.4354 248.494 56.8658C249.105 57.2962 249.449 57.8797 249.45 58.4884V59.3855C249.449 59.9941 249.105 60.5776 248.494 61.008C247.883 61.4384 247.054 61.6805 246.189 61.6811Z" fill="#E6E6E6"/>
<path d="M147.701 96.2306C154.604 96.2306 160.199 92.2905 160.199 87.4302C160.199 82.5699 154.604 78.6298 147.701 78.6298C140.798 78.6298 135.203 82.5699 135.203 87.4302C135.203 92.2905 140.798 96.2306 147.701 96.2306Z" fill="white"/>
<path d="M153.678 86.2823H149.331V83.2213C149.331 82.9169 149.159 82.6249 148.854 82.4096C148.548 82.1944 148.133 82.0734 147.701 82.0734C147.269 82.0734 146.854 82.1944 146.548 82.4096C146.242 82.6249 146.071 82.9169 146.071 83.2213V86.2823H141.724C141.291 86.2823 140.877 86.4033 140.571 86.6185C140.265 86.8338 140.093 87.1258 140.093 87.4302C140.093 87.7346 140.265 88.0266 140.571 88.2419C140.877 88.4571 141.291 88.5781 141.724 88.5781H146.071V91.6391C146.071 91.9435 146.242 92.2355 146.548 92.4508C146.854 92.666 147.269 92.787 147.701 92.787C148.133 92.787 148.548 92.666 148.854 92.4508C149.159 92.2355 149.331 91.9435 149.331 91.6391V88.5781H153.678C154.111 88.5781 154.525 88.4571 154.831 88.2419C155.137 88.0266 155.308 87.7346 155.308 87.4302C155.308 87.1258 155.137 86.8338 154.831 86.6185C154.525 86.4033 154.111 86.2823 153.678 86.2823Z" fill="#E6E6E6"/>
<path d="M163.459 6.50465H140.637C139.989 6.50414 139.367 6.32257 138.909 5.99978C138.45 5.67698 138.192 5.23933 138.192 4.78283V1.72182C138.192 1.26532 138.45 0.82767 138.909 0.504877C139.367 0.182085 139.989 0.000514464 140.637 0H163.459C164.108 0.000514464 164.729 0.182085 165.188 0.504877C165.646 0.82767 165.904 1.26532 165.905 1.72182V4.78283C165.904 5.23933 165.646 5.67698 165.188 5.99978C164.729 6.32257 164.108 6.50414 163.459 6.50465Z" fill="#CCCCCC"/>
<path d="M246.056 35.9669H223.233C222.585 35.9664 221.963 35.7848 221.505 35.462C221.046 35.1392 220.788 34.7016 220.788 34.2451V31.1841C220.788 30.7276 221.046 30.2899 221.505 29.9671C221.963 29.6443 222.585 29.4628 223.233 29.4623H246.056C246.704 29.4628 247.325 29.6443 247.784 29.9671C248.242 30.2899 248.5 30.7276 248.501 31.1841V34.2451C248.5 34.7016 248.242 35.1392 247.784 35.462C247.325 35.7848 246.704 35.9664 246.056 35.9669Z" fill="#CCCCCC"/>
<path d="M48.1427 180.241H54.8047L56.8876 162.147H48.1416L48.1427 180.241Z" fill="#FFB8B8"/>
<path d="M46.4436 178.709L59.5632 178.709H59.5638C60.6618 178.709 61.749 178.861 62.7634 179.157C63.7778 179.453 64.6995 179.886 65.4759 180.433C66.2523 180.98 66.8681 181.629 67.2883 182.343C67.7085 183.057 67.9247 183.823 67.9247 184.596V184.787L46.444 184.788L46.4436 178.709Z" fill="#2F2E41"/>
<path d="M12.2786 180.241H18.9406L22.1102 162.147H12.2775L12.2786 180.241Z" fill="#FFB8B8"/>
<path d="M10.5795 178.709L23.6991 178.709H23.6997C24.7976 178.709 25.8849 178.861 26.8993 179.157C27.9137 179.453 28.8354 179.886 29.6118 180.433C30.3881 180.98 31.004 181.629 31.4242 182.343C31.8443 183.057 32.0606 183.823 32.0606 184.596V184.787L10.5799 184.788L10.5795 178.709Z" fill="#2F2E41"/>
<path d="M13.4605 174.525C12.781 174.525 12.1263 174.345 11.6266 174.02C11.3583 173.848 11.1423 173.639 10.9914 173.407C10.8405 173.174 10.7579 172.922 10.7486 172.667L8.0769 105.243L46.012 111.921L57.7165 136.645C59.2258 139.826 59.8792 143.177 59.6431 146.526L58.1897 170.493C58.1566 170.983 57.8561 171.447 57.3507 171.786C56.8453 172.125 56.1739 172.314 55.4758 172.313H49.1132C48.4564 172.311 47.8227 172.143 47.3281 171.839C46.8336 171.534 46.5114 171.115 46.4207 170.657L41.8731 144.201C41.4757 142.137 40.4504 140.158 38.8672 138.399L29.9177 128.422C29.8579 128.355 29.7703 128.303 29.6669 128.273C29.5635 128.243 29.4493 128.236 29.34 128.253C29.2307 128.27 29.1317 128.31 29.0563 128.369C28.981 128.427 28.9331 128.5 28.9192 128.579L21.896 172.615C21.8206 173.061 21.5238 173.475 21.058 173.782C20.5921 174.09 19.9869 174.272 19.3491 174.297L13.6152 174.521C13.5636 174.523 13.5121 174.525 13.4605 174.525Z" fill="#2F2E41"/>
<path d="M39.6993 61.5903C47.0703 61.5903 53.0456 57.3828 53.0456 52.1926C53.0456 47.0024 47.0703 42.7949 39.6993 42.7949C32.3283 42.7949 26.3529 47.0024 26.3529 52.1926C26.3529 57.3828 32.3283 61.5903 39.6993 61.5903Z" fill="#FFB8B8"/>
<path d="M45.8303 114.663C45.6006 114.662 45.3719 114.642 45.1495 114.602H45.149L7.51112 107.806C6.83819 107.685 6.25686 107.387 5.88666 106.973C5.51645 106.559 5.38549 106.061 5.52073 105.581L14.1646 72.7936C14.7031 70.8984 15.8869 69.1234 17.6142 67.6213C19.3415 66.1191 21.5608 64.9346 24.0814 64.1694C26.5375 63.404 29.2234 63.076 31.9021 63.2145C34.5808 63.353 37.1699 63.9536 39.4409 64.9634C39.9678 65.1949 40.4986 65.4473 41.0181 65.7137C43.1096 66.8001 44.8152 68.2129 46.0011 69.8413C47.187 71.4697 47.821 73.2694 47.8534 75.0993L48.5408 112.722C48.5454 112.975 48.4787 113.227 48.3447 113.461C48.2107 113.696 48.0119 113.91 47.7599 114.09C47.5079 114.271 47.2076 114.414 46.8764 114.512C46.5452 114.611 46.1897 114.662 45.8303 114.663Z" fill="#F9A826"/>
<path d="M11.3838 115.048C10.9348 114.583 10.6362 114.054 10.5089 113.499C10.3816 112.943 10.4288 112.375 10.6471 111.834C10.8654 111.293 11.2496 110.792 11.7725 110.367C12.2954 109.942 12.9444 109.602 13.6737 109.373L11.9996 95.7508L20.8711 99.1364L21.1007 111.553C21.5671 112.442 21.5546 113.419 21.0655 114.302C20.5763 115.184 19.6446 115.909 18.4469 116.34C17.2492 116.771 15.8686 116.877 14.5669 116.639C13.2651 116.401 12.1325 115.835 11.3838 115.048H11.3838Z" fill="#FFB8B8"/>
<path d="M14.5532 107.571C14.3028 107.571 14.0535 107.549 13.811 107.505C13.2895 107.412 12.8135 107.22 12.4336 106.952C12.0537 106.683 11.7839 106.348 11.6527 105.98L7.29295 93.7803C5.76933 89.5195 6.49565 85.014 9.33679 81.1021L18.4706 68.5206C19.048 67.0143 20.4431 65.728 22.355 64.9394C24.2669 64.1507 26.5425 63.9227 28.6909 64.3046C29.7617 64.495 30.7682 64.8332 31.652 65.2996C32.5358 65.766 33.2793 66.3513 33.8395 67.0215C34.4111 67.7013 34.785 68.4545 34.9393 69.237C35.0936 70.0196 35.0253 70.816 34.7383 71.5798L21.7362 92.0525L21.8906 104.31C21.8946 104.743 21.71 105.166 21.3616 105.522C21.0133 105.878 20.518 106.15 19.9428 106.302L15.5917 107.439C15.2594 107.527 14.9077 107.571 14.5532 107.571Z" fill="#F9A826"/>
<path d="M76.7915 110.038C75.9978 109.974 75.2337 109.788 74.5529 109.494C73.8721 109.199 73.2913 108.804 72.8513 108.334C72.4113 107.865 72.1228 107.333 72.0062 106.776C71.8896 106.22 71.9477 105.652 72.1764 105.113L56.4215 97.1206L65.853 94.5945L79.3682 102.572C80.6285 102.902 81.6729 103.547 82.3034 104.384C82.9339 105.22 83.1067 106.19 82.7891 107.111C82.4715 108.031 81.6855 108.837 80.5801 109.377C79.4747 109.916 78.1267 110.151 76.7915 110.038H76.7915Z" fill="#FFB8B8"/>
<path d="M68.5439 104.201C68.0794 104.201 67.6213 104.125 67.2057 103.978L51.2303 98.3472C45.6504 96.3806 41.2746 93.0541 38.9166 88.9861L31.3323 75.9039C30.0877 74.613 29.6133 73.0294 30.0116 71.4945C30.4098 69.9596 31.6487 68.5964 33.4612 67.6988C34.3668 67.2504 35.39 66.9334 36.4713 66.7664C37.5526 66.5993 38.6703 66.5854 39.7593 66.7256C40.8611 66.8651 41.9126 67.1571 42.8529 67.5849C43.7932 68.0126 44.6036 68.5675 45.2372 69.2173L58.7922 89.5117L72.0868 97.4254C72.555 97.7053 72.8898 98.0797 73.0459 98.4979C73.2021 98.9162 73.1721 99.3581 72.9599 99.7639L71.3462 102.828C71.1355 103.23 70.7549 103.577 70.2557 103.821C69.7538 104.069 69.1562 104.201 68.5439 104.201Z" fill="#F9A826"/>
<path d="M36.8967 61.7342C37.6058 61.9527 39.058 57.974 38.4075 57.1782C37.4401 55.9948 37.4973 56.0033 36.8551 55.2203C36.2129 54.4373 36.0692 53.3657 36.9008 52.6768C37.7325 51.9878 39.657 52.0792 40.0365 52.943C39.7923 51.3024 42.097 49.9835 44.3798 49.6129C46.6627 49.2423 49.0707 49.4724 51.3661 49.1426C54.0301 48.7599 56.8018 47.1875 55.7389 45.1248C55.5565 44.7814 55.2834 44.4653 54.9341 44.1934C53.7061 43.2212 51.9883 42.8061 50.3087 42.4047C46.8147 41.5696 43.225 40.724 39.5375 40.8162C36.4991 40.9281 33.573 41.6612 31.1172 42.9258C28.6613 44.1904 26.7823 45.9317 25.71 47.9366C25.4559 48.4382 25.259 48.9532 25.1213 49.4768C23.8556 54.2689 27.8077 58.9958 34.2266 60.8206L36.8967 61.7342Z" fill="#2F2E41"/>
<path opacity="0.2" d="M21.1381 104.588L21.4407 91.9888L30.9192 78.5697L23.3116 92.3443L21.1381 104.588Z" fill="black"/>
<path d="M107.091 136.208L67.0762 124.502C66.199 124.247 65.4159 123.855 64.7863 123.356C64.1567 122.856 63.6973 122.262 63.443 121.618C63.1815 120.967 63.1344 120.283 63.3053 119.617C63.4761 118.952 63.8605 118.322 64.429 117.777C74.535 107.979 81.2235 96.6432 83.9534 84.6873C84.1012 84.0189 84.4636 83.3831 85.013 82.8282C85.5624 82.2733 86.2843 81.8139 87.1238 81.485C87.9509 81.1579 88.8731 80.9678 89.8202 80.9295C90.7672 80.8911 91.7143 81.0053 92.5892 81.2635L132.604 92.9702C133.984 93.3772 135.114 94.1158 135.793 95.0546C136.471 95.9934 136.655 97.0714 136.31 98.0965C131.837 110.911 124.605 123.167 114.865 134.441C114.076 135.336 112.862 136.005 111.438 136.329C110.015 136.652 108.474 136.61 107.091 136.208Z" fill="#E6E6E6"/>
<path d="M91.3382 83.3836C90.9181 83.2595 90.4633 83.2045 90.0085 83.2229C89.5536 83.2412 89.1107 83.3323 88.7134 83.4893C88.3051 83.6498 87.954 83.8737 87.6871 84.1441C87.4201 84.4144 87.2442 84.7241 87.1728 85.0496C84.3613 97.3627 77.4729 109.037 67.0649 119.128C66.7877 119.393 66.6001 119.699 66.5164 120.023C66.4326 120.347 66.4549 120.68 66.5816 120.997L66.5817 120.997C66.7039 121.306 66.9247 121.592 67.2271 121.832C67.5296 122.071 67.9057 122.26 68.327 122.382L108.342 134.088C109.005 134.283 109.745 134.305 110.429 134.151C111.114 133.997 111.698 133.677 112.079 133.248C121.646 122.174 128.75 110.135 133.144 97.548C133.307 97.0553 133.217 96.5379 132.889 96.0878C132.561 95.6377 132.017 95.2842 131.353 95.0903L91.3382 83.3836Z" fill="white"/>
<path d="M112.644 109.443L91.6463 103.3C90.8484 103.066 90.2151 102.619 89.8852 102.056C89.5552 101.493 89.5557 100.862 89.8865 100.299L90.3753 99.4709C90.7078 98.9091 91.3433 98.4631 92.1422 98.2308C92.9412 97.9985 93.8384 97.9988 94.637 98.2317L115.635 104.375C116.433 104.609 117.066 105.056 117.396 105.619C117.726 106.182 117.726 106.813 117.395 107.376L116.906 108.204C116.574 108.766 115.938 109.212 115.139 109.444C114.34 109.677 113.443 109.676 112.644 109.443Z" fill="#F9A826"/>
<path d="M106.468 119.911L85.4695 113.768C84.6717 113.534 84.0383 113.087 83.7084 112.524C83.3785 111.961 83.379 111.33 83.7097 110.767L84.1986 109.939C84.5311 109.377 85.1665 108.931 85.9655 108.699C86.7644 108.466 87.6616 108.467 88.4602 108.7L109.458 114.843C110.256 115.077 110.89 115.524 111.219 116.087C111.549 116.65 111.549 117.281 111.218 117.844L110.729 118.672C110.397 119.234 109.761 119.68 108.962 119.912C108.163 120.145 107.266 120.144 106.468 119.911Z" fill="#F9A826"/>
<path d="M121.058 94.7315C120.744 94.7313 120.433 94.6884 120.142 94.605L98.9829 88.5814C98.3821 88.4098 97.9026 88.0775 97.6494 87.6573C97.3962 87.237 97.3901 86.7633 97.6323 86.3399L99.2618 83.5019C99.505 83.0786 99.977 82.7406 100.574 82.5623C101.171 82.384 101.844 82.38 102.445 82.5511L123.604 88.5747C124.205 88.7463 124.684 89.0786 124.938 89.4989C125.191 89.9191 125.197 90.3929 124.955 90.8163L123.325 93.6542C123.142 93.972 122.829 94.2443 122.425 94.4361C122.021 94.628 121.546 94.7308 121.058 94.7315Z" fill="#CCCCCC"/>
<path d="M76.6188 185H0.543396C0.399278 185 0.261071 184.96 0.159165 184.888C0.0572583 184.816 0 184.719 0 184.617C0 184.516 0.0572583 184.419 0.159165 184.347C0.261071 184.275 0.399278 184.235 0.543396 184.235H76.6188C76.7629 184.235 76.9011 184.275 77.003 184.347C77.1049 184.419 77.1622 184.516 77.1622 184.617C77.1622 184.719 77.1049 184.816 77.003 184.888C76.9011 184.96 76.7629 185 76.6188 185Z" fill="#CCCCCC"/>
</g>
<defs>
<clipPath id="clip0_3_224">
<rect width="264" height="185" fill="white"/>
</clipPath>
</defs>
</svg>
