<svg width="22" height="21" viewBox="0 0 22 21" fill="none" xmlns="http://www.w3.org/2000/svg">
<path d="M21.2483 16.8116L17.5319 13.2591L14.6734 12.1302C15.6252 10.8363 16.1351 9.29274 16.1333 7.71101C16.1333 3.45913 12.5146 0 8.06665 0C3.61867 0 0 3.45913 0 7.71101C0 11.9629 3.61867 15.422 8.06665 15.422C9.73573 15.4238 11.3638 14.928 12.7242 14.0035L13.9021 16.7286L17.6183 20.2813C17.8566 20.5092 18.1396 20.6899 18.451 20.8132C18.7624 20.9365 19.0961 21 19.4332 21C19.7703 21 20.104 20.9366 20.4155 20.8133C20.7269 20.69 21.0098 20.5093 21.2482 20.2814C21.4865 20.0536 21.6756 19.7831 21.8046 19.4855C21.9336 19.1878 22 18.8687 22 18.5465C22 18.2243 21.9336 17.9053 21.8047 17.6076C21.6757 17.3099 21.4866 17.0394 21.2483 16.8116ZM1.46666 7.71101C1.46666 4.23229 4.42749 1.402 8.06665 1.402C11.7058 1.402 14.6666 4.23229 14.6666 7.71101C14.6666 11.1897 11.7058 14.02 8.06665 14.02C4.42749 14.02 1.46666 11.1897 1.46666 7.71101ZM20.2111 19.29C20.0047 19.4869 19.7249 19.5975 19.4333 19.5975C19.1416 19.5975 18.8619 19.4869 18.6555 19.29L15.1459 15.9352L14.0508 13.4013L16.7016 14.4481L20.2112 17.8029C20.4172 18.0003 20.5328 18.2677 20.5328 18.5465C20.5328 18.8252 20.4171 19.0926 20.2111 19.29Z" fill="#B4B4B4"/>
</svg>
